<svg width="28" height="28" viewBox="0 0 28 28" fill="none" xmlns="http://www.w3.org/2000/svg">
<path d="M20.2501 19H7.75015C7.64076 18.9993 7.53345 18.97 7.43896 18.9149C7.34448 18.8597 7.26611 18.7808 7.2117 18.6859C7.15729 18.591 7.12874 18.4835 7.12891 18.3741C7.12907 18.2647 7.15795 18.1572 7.21265 18.0625C7.72749 17.1719 8.37515 14.9227 8.37515 12.125C8.37515 10.6332 8.96778 9.20242 10.0227 8.14752C11.0776 7.09263 12.5083 6.5 14.0001 6.5C15.492 6.5 16.9227 7.09263 17.9776 8.14752C19.0325 9.20242 19.6251 10.6332 19.6251 12.125C19.6251 14.9234 20.2736 17.1719 20.7892 18.0625C20.844 18.1574 20.8728 18.2649 20.8729 18.3745C20.873 18.484 20.8444 18.5916 20.7898 18.6865C20.7352 18.7815 20.6566 18.8604 20.5619 18.9154C20.4672 18.9705 20.3597 18.9996 20.2501 19Z" fill="#1C1C1C" fill-opacity="0.1"/>
<path d="M21.3282 17.7453C20.8946 16.9984 20.2501 14.8852 20.2501 12.125C20.2501 10.4674 19.5916 8.87769 18.4195 7.70558C17.2474 6.53348 15.6577 5.875 14.0001 5.875C12.3425 5.875 10.7528 6.53348 9.58065 7.70558C8.40855 8.87769 7.75007 10.4674 7.75007 12.125C7.75007 14.8859 7.10476 16.9984 6.67116 17.7453C6.56044 17.9352 6.50174 18.1509 6.50098 18.3707C6.50023 18.5905 6.55745 18.8066 6.66687 18.9973C6.77629 19.1879 6.93404 19.3463 7.12422 19.4565C7.31439 19.5667 7.53027 19.6248 7.75007 19.625H10.9384C11.0825 20.3306 11.466 20.9647 12.0239 21.4201C12.5818 21.8756 13.2799 22.1243 14.0001 22.1243C14.7202 22.1243 15.4183 21.8756 15.9762 21.4201C16.5341 20.9647 16.9176 20.3306 17.0618 19.625H20.2501C20.4698 19.6247 20.6856 19.5665 20.8757 19.4562C21.0657 19.346 21.2234 19.1875 21.3327 18.9969C21.442 18.8063 21.4992 18.5903 21.4984 18.3705C21.4976 18.1508 21.4389 17.9351 21.3282 17.7453ZM14.0001 20.875C13.6124 20.8749 13.2344 20.7546 12.9179 20.5308C12.6014 20.3069 12.3621 19.9905 12.2329 19.625H15.7673C15.638 19.9905 15.3987 20.3069 15.0823 20.5308C14.7658 20.7546 14.3877 20.8749 14.0001 20.875ZM7.75007 18.375C8.35163 17.3406 9.00007 14.9438 9.00007 12.125C9.00007 10.7989 9.52686 9.52715 10.4645 8.58947C11.4022 7.65178 12.674 7.125 14.0001 7.125C15.3262 7.125 16.5979 7.65178 17.5356 8.58947C18.4733 9.52715 19.0001 10.7989 19.0001 12.125C19.0001 14.9414 19.6469 17.3383 20.2501 18.375H7.75007Z" fill="#1C1C1C"/>
</svg>
