<svg width="28" height="28" viewBox="0 0 28 28" fill="none" xmlns="http://www.w3.org/2000/svg">
<path d="M10.875 7.75V20.25H7.125C6.95924 20.25 6.80027 20.1842 6.68306 20.0669C6.56585 19.9497 6.5 19.7908 6.5 19.625V8.375C6.5 8.20924 6.56585 8.05027 6.68306 7.93306C6.80027 7.81585 6.95924 7.75 7.125 7.75H10.875Z" fill="#1C1C1C" fill-opacity="0.1"/>
<path d="M20.875 7.125H7.125C6.79348 7.125 6.47554 7.2567 6.24112 7.49112C6.0067 7.72554 5.875 8.04348 5.875 8.375V19.625C5.875 19.9565 6.0067 20.2745 6.24112 20.5089C6.47554 20.7433 6.79348 20.875 7.125 20.875H20.875C21.2065 20.875 21.5245 20.7433 21.7589 20.5089C21.9933 20.2745 22.125 19.9565 22.125 19.625V8.375C22.125 8.04348 21.9933 7.72554 21.7589 7.49112C21.5245 7.2567 21.2065 7.125 20.875 7.125ZM7.125 15.875H8.375C8.54076 15.875 8.69973 15.8092 8.81694 15.6919C8.93415 15.5747 9 15.4158 9 15.25C9 15.0842 8.93415 14.9253 8.81694 14.8081C8.69973 14.6908 8.54076 14.625 8.375 14.625H7.125V13.375H8.375C8.54076 13.375 8.69973 13.3092 8.81694 13.1919C8.93415 13.0747 9 12.9158 9 12.75C9 12.5842 8.93415 12.4253 8.81694 12.3081C8.69973 12.1908 8.54076 12.125 8.375 12.125H7.125V10.875H8.375C8.54076 10.875 8.69973 10.8092 8.81694 10.6919C8.93415 10.5747 9 10.4158 9 10.25C9 10.0842 8.93415 9.92527 8.81694 9.80806C8.69973 9.69085 8.54076 9.625 8.375 9.625H7.125V8.375H10.25V19.625H7.125V15.875ZM20.875 19.625H11.5V8.375H20.875V19.625Z" fill="#1C1C1C"/>
</svg>
