<svg xmlns="http://www.w3.org/2000/svg" width="24" height="24" id="feedback"><path fill="none" d="M0 0h24v24H0Z" data-name="Path 3631"></path><path fill="#525863" d="m17.182 21.363-4.443-3.909H4.2a1.814 1.814 0 0 1-1.8-1.828v-11.4a1.815 1.815 0 0 1 1.8-1.83h15.6a1.815 1.815 0 0 1 1.8 1.83v11.4a1.814 1.814 0 0 1-1.8 1.828h-1.754a1.235 1.235 0 0 1 .043.3v3.183c0 .426-.165.658-.414.658a.79.79 0 0 1-.493-.232ZM4.2 15.626h9.21l.507.446 2.372 2.087v-.3l-.577-2.231H19.8v-11.4H4.2Zm3.852-1.827a.9.9 0 0 1-.9-.9.9.9 0 0 1 .9-.9h7.847a.9.9 0 0 1 .9.9.9.9 0 0 1-.9.9Zm0-3a.9.9 0 0 1-.9-.9.9.9 0 0 1 .9-.9h7.847a.9.9 0 0 1 .9.9.9.9 0 0 1-.9.9Zm0-3a.9.9 0 0 1-.9-.9.9.9 0 0 1 .9-.9h7.847a.9.9 0 0 1 .9.9.9.9 0 0 1-.9.9Z" data-name="Path 3541"></path></svg>