<svg xmlns="http://www.w3.org/2000/svg" viewBox="0 0 64 64" id="add-user"><path d="M25.71118,34.71187A14.83144,14.83144,0,0,0,40.52545,19.89712C39.7112.24471,11.70817.25044,10.89689,19.89723A14.83146,14.83146,0,0,0,25.71118,34.71187Zm0-27.62782A12.82793,12.82793,0,0,1,38.52475,19.89712C37.82111,36.89674,13.59866,36.8918,12.8976,19.897A12.82793,12.82793,0,0,1,25.71118,7.08405Z"></path><path d="M25.71118 36.19481a21.74618 21.74618 0 00-21.721 21.72147 1.00009 1.00009 0 001.00035 1.00035H46.43181a.99978.99978 0 001.00035-1.00035A21.74586 21.74586 0 0025.71118 36.19481zm0 2.0007a19.72829 19.72829 0 0119.6696 18.72042H6.04159A19.728 19.728 0 0125.71118 38.19551zM59.00945 32.71117H50.81811V24.52179a1.00055 1.00055 0 00-2.0007.00006v8.18932H40.628a1.00035 1.00035 0 000 2.0007h8.18939v8.18841a1.00035 1.00035 0 002.0007 0V34.71187h8.19134A1.00055 1.00055 0 0059.00945 32.71117z"></path></svg>