<svg width="40" height="40" viewBox="0 0 40 40" fill="none" xmlns="http://www.w3.org/2000/svg">
<path d="M16.6667 28.3333L8.33334 19.9999L10.6833 17.6333L16.6667 23.6166L29.3167 10.9666L31.6667 13.3333M20 3.33325C17.8113 3.33325 15.644 3.76435 13.622 4.60193C11.5999 5.4395 9.76254 6.66716 8.2149 8.21481C5.08929 11.3404 3.33334 15.5796 3.33334 19.9999C3.33334 24.4202 5.08929 28.6594 8.2149 31.785C9.76254 33.3327 11.5999 34.5603 13.622 35.3979C15.644 36.2355 17.8113 36.6666 20 36.6666C24.4203 36.6666 28.6595 34.9106 31.7851 31.785C34.9107 28.6594 36.6667 24.4202 36.6667 19.9999C36.6667 17.8112 36.2356 15.644 35.398 13.6219C34.5604 11.5998 33.3328 9.76245 31.7851 8.21481C30.2375 6.66716 28.4002 5.4395 26.3781 4.60193C24.356 3.76435 22.1887 3.33325 20 3.33325Z" fill="black"/>
</svg>
